<svg xmlns="http://www.w3.org/2000/svg" viewBox="0 0 640 320" aria-hidden="true">
  <rect width="640" height="320" rx="28" fill="#f5f7f6"/>
  <g font-family="system-ui,sans-serif" fill="#17201c" text-anchor="middle">
    <g transform="translate(24 58)">
      <rect width="108" height="210" rx="16" fill="#e1efeb"/><text x="54" y="38" font-size="20" font-weight="700">1 · mā</text><path d="M20 104h68" stroke="#147d6f" stroke-width="7" stroke-linecap="round"/><text x="54" y="174" font-size="26">ˉ</text>
    </g>
    <g transform="translate(145 58)">
      <rect width="108" height="210" rx="16" fill="#e8ecea"/><text x="54" y="38" font-size="20" font-weight="700">2 · má</text><path d="M20 128L88 90" stroke="#506b62" stroke-width="7" stroke-linecap="round"/><text x="54" y="174" font-size="26">ˊ</text>
    </g>
    <g transform="translate(266 58)">
      <rect width="108" height="210" rx="16" fill="#e5eaf3"/><text x="54" y="38" font-size="20" font-weight="700">3 · mǎ</text><path d="M18 98Q54 150 90 102" stroke="#516d9a" stroke-width="7" fill="none" stroke-linecap="round"/><text x="54" y="174" font-size="26">ˇ</text>
    </g>
    <g transform="translate(387 58)">
      <rect width="108" height="210" rx="16" fill="#eee8e5"/><text x="54" y="38" font-size="20" font-weight="700">4 · mà</text><path d="M20 88L88 136" stroke="#8b6251" stroke-width="7" stroke-linecap="round"/><text x="54" y="174" font-size="26">ˋ</text>
    </g>
    <g transform="translate(508 58)">
      <rect width="108" height="210" rx="16" fill="#ecebea"/><text x="54" y="38" font-size="20" font-weight="700">0 · ma</text><path d="M42 112h24" stroke="#727876" stroke-width="7" stroke-linecap="round"/><text x="54" y="174" font-size="24">·</text>
    </g>
  </g>
</svg>
